<mxfile host="app.diagrams.net" modified="2020-11-15T15:42:56.694Z" agent="5.0 (Windows NT 10.0; Win64; x64) AppleWebKit/537.36 (KHTML, like Gecko) Chrome/86.0.4240.193 Safari/537.36" etag="zir7dhb896A8bky8UsQR" version="13.9.8" type="github">
  <diagram id="aPZn9u-TO7b_9oXJouzQ" name="Page-1">
    <mxGraphModel dx="868" dy="450" grid="1" gridSize="10" guides="1" tooltips="1" connect="1" arrows="1" fold="1" page="1" pageScale="1" pageWidth="850" pageHeight="1100" math="0" shadow="0">
      <root>
        <mxCell id="0" />
        <mxCell id="1" parent="0" />
        <mxCell id="ZkGkHLTBuWnTBVSwvzdj-1" value="Actor" style="shape=umlActor;verticalLabelPosition=bottom;verticalAlign=top;html=1;" vertex="1" parent="1">
          <mxGeometry x="10" y="220" width="60" height="160" as="geometry" />
        </mxCell>
        <mxCell id="ZkGkHLTBuWnTBVSwvzdj-2" value="Customer" style="text;html=1;strokeColor=none;fillColor=none;align=center;verticalAlign=middle;whiteSpace=wrap;rounded=0;" vertex="1" parent="1">
          <mxGeometry x="20" y="410" width="40" height="20" as="geometry" />
        </mxCell>
        <mxCell id="ZkGkHLTBuWnTBVSwvzdj-3" value="Sign In&amp;nbsp;" style="ellipse;whiteSpace=wrap;html=1;" vertex="1" parent="1">
          <mxGeometry x="100" y="30" width="115" height="60" as="geometry" />
        </mxCell>
        <mxCell id="ZkGkHLTBuWnTBVSwvzdj-4" value="Create Account" style="ellipse;whiteSpace=wrap;html=1;" vertex="1" parent="1">
          <mxGeometry x="170" y="90" width="110" height="60" as="geometry" />
        </mxCell>
        <mxCell id="ZkGkHLTBuWnTBVSwvzdj-5" value="" style="endArrow=none;html=1;entryX=0.008;entryY=0.663;entryDx=0;entryDy=0;entryPerimeter=0;" edge="1" parent="1" source="ZkGkHLTBuWnTBVSwvzdj-4" target="ZkGkHLTBuWnTBVSwvzdj-3">
          <mxGeometry width="50" height="50" relative="1" as="geometry">
            <mxPoint x="110" y="143" as="sourcePoint" />
            <mxPoint x="170" y="140" as="targetPoint" />
            <Array as="points">
              <mxPoint x="40" y="310" />
            </Array>
          </mxGeometry>
        </mxCell>
        <mxCell id="ZkGkHLTBuWnTBVSwvzdj-6" value="Browse Menu" style="ellipse;whiteSpace=wrap;html=1;" vertex="1" parent="1">
          <mxGeometry x="270" y="140" width="120" height="60" as="geometry" />
        </mxCell>
        <mxCell id="ZkGkHLTBuWnTBVSwvzdj-7" value="Select Pizza" style="ellipse;whiteSpace=wrap;html=1;" vertex="1" parent="1">
          <mxGeometry x="400" y="160" width="130" height="60" as="geometry" />
        </mxCell>
        <mxCell id="ZkGkHLTBuWnTBVSwvzdj-8" value="Create Own Pizza" style="ellipse;whiteSpace=wrap;html=1;" vertex="1" parent="1">
          <mxGeometry x="340" y="230" width="130" height="50" as="geometry" />
        </mxCell>
        <mxCell id="ZkGkHLTBuWnTBVSwvzdj-9" value="Select Toppings" style="ellipse;whiteSpace=wrap;html=1;" vertex="1" parent="1">
          <mxGeometry x="460" y="275" width="100" height="50" as="geometry" />
        </mxCell>
        <mxCell id="ZkGkHLTBuWnTBVSwvzdj-10" value="Add to Cart" style="ellipse;whiteSpace=wrap;html=1;" vertex="1" parent="1">
          <mxGeometry x="470" y="410" width="145" height="60" as="geometry" />
        </mxCell>
        <mxCell id="ZkGkHLTBuWnTBVSwvzdj-11" value="Checkout" style="ellipse;whiteSpace=wrap;html=1;" vertex="1" parent="1">
          <mxGeometry x="470" y="490" width="147.5" height="60" as="geometry" />
        </mxCell>
        <mxCell id="ZkGkHLTBuWnTBVSwvzdj-12" value="Enter Delivery Address" style="ellipse;whiteSpace=wrap;html=1;" vertex="1" parent="1">
          <mxGeometry x="495" y="560" width="120" height="70" as="geometry" />
        </mxCell>
        <mxCell id="ZkGkHLTBuWnTBVSwvzdj-13" value="Payment" style="ellipse;whiteSpace=wrap;html=1;" vertex="1" parent="1">
          <mxGeometry x="230" y="540" width="130" height="60" as="geometry" />
        </mxCell>
        <mxCell id="ZkGkHLTBuWnTBVSwvzdj-14" value="Submit Order" style="ellipse;whiteSpace=wrap;html=1;" vertex="1" parent="1">
          <mxGeometry x="270" y="630" width="140" height="70" as="geometry" />
        </mxCell>
        <mxCell id="ZkGkHLTBuWnTBVSwvzdj-15" value="" style="endArrow=none;html=1;entryX=0;entryY=0.5;entryDx=0;entryDy=0;exitX=0.038;exitY=0.667;exitDx=0;exitDy=0;exitPerimeter=0;" edge="1" parent="1" source="ZkGkHLTBuWnTBVSwvzdj-7" target="ZkGkHLTBuWnTBVSwvzdj-6">
          <mxGeometry width="50" height="50" relative="1" as="geometry">
            <mxPoint x="70" y="225" as="sourcePoint" />
            <mxPoint x="110" y="200" as="targetPoint" />
            <Array as="points">
              <mxPoint x="40" y="320" />
              <mxPoint x="40" y="310" />
            </Array>
          </mxGeometry>
        </mxCell>
        <mxCell id="ZkGkHLTBuWnTBVSwvzdj-16" value="" style="endArrow=none;html=1;entryX=0;entryY=0.5;entryDx=0;entryDy=0;exitX=0;exitY=0.5;exitDx=0;exitDy=0;" edge="1" parent="1" source="ZkGkHLTBuWnTBVSwvzdj-9" target="ZkGkHLTBuWnTBVSwvzdj-8">
          <mxGeometry width="50" height="50" relative="1" as="geometry">
            <mxPoint x="214.94000000000005" y="510.02" as="sourcePoint" />
            <mxPoint x="205" y="430" as="targetPoint" />
            <Array as="points">
              <mxPoint x="40" y="310" />
            </Array>
          </mxGeometry>
        </mxCell>
        <mxCell id="ZkGkHLTBuWnTBVSwvzdj-17" value="" style="endArrow=none;html=1;entryX=0;entryY=0.5;entryDx=0;entryDy=0;exitX=0;exitY=0.5;exitDx=0;exitDy=0;" edge="1" parent="1" source="ZkGkHLTBuWnTBVSwvzdj-11" target="ZkGkHLTBuWnTBVSwvzdj-10">
          <mxGeometry width="50" height="50" relative="1" as="geometry">
            <mxPoint x="240" y="650.02" as="sourcePoint" />
            <mxPoint x="230.05999999999995" y="570" as="targetPoint" />
            <Array as="points">
              <mxPoint x="40" y="310" />
            </Array>
          </mxGeometry>
        </mxCell>
        <mxCell id="ZkGkHLTBuWnTBVSwvzdj-20" value="" style="endArrow=none;html=1;entryX=0;entryY=0.5;entryDx=0;entryDy=0;exitX=0.5;exitY=0;exitDx=0;exitDy=0;" edge="1" parent="1" source="ZkGkHLTBuWnTBVSwvzdj-13" target="ZkGkHLTBuWnTBVSwvzdj-12">
          <mxGeometry width="50" height="50" relative="1" as="geometry">
            <mxPoint x="260" y="520" as="sourcePoint" />
            <mxPoint x="280" y="470" as="targetPoint" />
            <Array as="points">
              <mxPoint x="40" y="310" />
            </Array>
          </mxGeometry>
        </mxCell>
        <mxCell id="ZkGkHLTBuWnTBVSwvzdj-24" value="" style="endArrow=none;html=1;entryX=0;entryY=0.5;entryDx=0;entryDy=0;" edge="1" parent="1" target="ZkGkHLTBuWnTBVSwvzdj-14">
          <mxGeometry width="50" height="50" relative="1" as="geometry">
            <mxPoint x="40" y="310" as="sourcePoint" />
            <mxPoint x="240" y="790" as="targetPoint" />
          </mxGeometry>
        </mxCell>
        <mxCell id="ZkGkHLTBuWnTBVSwvzdj-25" value="Actor" style="shape=umlActor;verticalLabelPosition=bottom;verticalAlign=top;html=1;" vertex="1" parent="1">
          <mxGeometry x="750" y="370" width="60" height="125" as="geometry" />
        </mxCell>
        <mxCell id="ZkGkHLTBuWnTBVSwvzdj-26" value="Delivery Driver" style="text;html=1;strokeColor=none;fillColor=none;align=center;verticalAlign=middle;whiteSpace=wrap;rounded=0;" vertex="1" parent="1">
          <mxGeometry x="760" y="530" width="50" height="40" as="geometry" />
        </mxCell>
        <mxCell id="ZkGkHLTBuWnTBVSwvzdj-28" value="" style="endArrow=none;html=1;entryX=0.45;entryY=0.618;entryDx=0;entryDy=0;entryPerimeter=0;" edge="1" parent="1" source="ZkGkHLTBuWnTBVSwvzdj-11" target="ZkGkHLTBuWnTBVSwvzdj-25">
          <mxGeometry width="50" height="50" relative="1" as="geometry">
            <mxPoint x="520" y="490" as="sourcePoint" />
            <mxPoint x="650" y="650" as="targetPoint" />
            <Array as="points" />
          </mxGeometry>
        </mxCell>
        <mxCell id="ZkGkHLTBuWnTBVSwvzdj-29" value="" style="endArrow=none;html=1;exitX=0.929;exitY=0.833;exitDx=0;exitDy=0;exitPerimeter=0;entryX=0.483;entryY=0.609;entryDx=0;entryDy=0;entryPerimeter=0;" edge="1" parent="1" source="ZkGkHLTBuWnTBVSwvzdj-12" target="ZkGkHLTBuWnTBVSwvzdj-25">
          <mxGeometry width="50" height="50" relative="1" as="geometry">
            <mxPoint x="690" y="550" as="sourcePoint" />
            <mxPoint x="740" y="500" as="targetPoint" />
          </mxGeometry>
        </mxCell>
        <mxCell id="ZkGkHLTBuWnTBVSwvzdj-30" value="Actor" style="shape=umlActor;verticalLabelPosition=bottom;verticalAlign=top;html=1;" vertex="1" parent="1">
          <mxGeometry x="720" y="140" width="70" height="110" as="geometry" />
        </mxCell>
        <mxCell id="ZkGkHLTBuWnTBVSwvzdj-31" value="Cook" style="text;html=1;strokeColor=none;fillColor=none;align=center;verticalAlign=middle;whiteSpace=wrap;rounded=0;" vertex="1" parent="1">
          <mxGeometry x="735" y="280" width="40" height="20" as="geometry" />
        </mxCell>
        <mxCell id="ZkGkHLTBuWnTBVSwvzdj-32" value="Select Crust" style="ellipse;whiteSpace=wrap;html=1;" vertex="1" parent="1">
          <mxGeometry x="460" y="335" width="140" height="50" as="geometry" />
        </mxCell>
        <mxCell id="ZkGkHLTBuWnTBVSwvzdj-33" value="" style="endArrow=none;html=1;entryX=0;entryY=0.5;entryDx=0;entryDy=0;" edge="1" parent="1" target="ZkGkHLTBuWnTBVSwvzdj-32">
          <mxGeometry width="50" height="50" relative="1" as="geometry">
            <mxPoint x="70" y="310" as="sourcePoint" />
            <mxPoint x="450" y="310" as="targetPoint" />
          </mxGeometry>
        </mxCell>
        <mxCell id="ZkGkHLTBuWnTBVSwvzdj-34" value="" style="endArrow=none;html=1;exitX=1;exitY=0.333;exitDx=0;exitDy=0;exitPerimeter=0;" edge="1" parent="1" source="ZkGkHLTBuWnTBVSwvzdj-7">
          <mxGeometry width="50" height="50" relative="1" as="geometry">
            <mxPoint x="710" y="240" as="sourcePoint" />
            <mxPoint x="750" y="200" as="targetPoint" />
          </mxGeometry>
        </mxCell>
        <mxCell id="ZkGkHLTBuWnTBVSwvzdj-35" value="" style="endArrow=none;html=1;exitX=0.993;exitY=0.317;exitDx=0;exitDy=0;exitPerimeter=0;" edge="1" parent="1" source="ZkGkHLTBuWnTBVSwvzdj-8">
          <mxGeometry width="50" height="50" relative="1" as="geometry">
            <mxPoint x="700" y="250" as="sourcePoint" />
            <mxPoint x="750" y="200" as="targetPoint" />
          </mxGeometry>
        </mxCell>
        <mxCell id="ZkGkHLTBuWnTBVSwvzdj-36" value="" style="endArrow=none;html=1;exitX=0.97;exitY=0.22;exitDx=0;exitDy=0;exitPerimeter=0;" edge="1" parent="1" source="ZkGkHLTBuWnTBVSwvzdj-9">
          <mxGeometry width="50" height="50" relative="1" as="geometry">
            <mxPoint x="600" y="308" as="sourcePoint" />
            <mxPoint x="750" y="200" as="targetPoint" />
          </mxGeometry>
        </mxCell>
        <mxCell id="ZkGkHLTBuWnTBVSwvzdj-37" value="" style="endArrow=none;html=1;exitX=1;exitY=0.3;exitDx=0;exitDy=0;exitPerimeter=0;" edge="1" parent="1" source="ZkGkHLTBuWnTBVSwvzdj-32">
          <mxGeometry width="50" height="50" relative="1" as="geometry">
            <mxPoint x="600" y="330" as="sourcePoint" />
            <mxPoint x="750" y="200" as="targetPoint" />
          </mxGeometry>
        </mxCell>
      </root>
    </mxGraphModel>
  </diagram>
</mxfile>
